<svg width="32" height="32" viewBox="0 0 32 32" fill="none" xmlns="http://www.w3.org/2000/svg">
<rect width="32" height="32" rx="16" fill="#00AE8C"/>
<path d="M15.298 6.12682C15.6926 5.97917 16.1238 5.95992 16.53 6.07182L16.702 6.12682L23.702 8.75182C24.0569 8.88491 24.3667 9.11612 24.5953 9.41852C24.8239 9.72092 24.9618 10.082 24.993 10.4598L25 10.6248V15.9878C25 17.6082 24.5624 19.1986 23.7336 20.591C22.9048 21.9834 21.7154 23.1262 20.291 23.8988L20.025 24.0378L16.671 25.7148C16.4863 25.807 16.2846 25.8601 16.0785 25.8708C15.8723 25.8815 15.6662 25.8495 15.473 25.7768L15.329 25.7148L11.975 24.0378C10.5256 23.3131 9.29878 22.2105 8.424 20.8464C7.54923 19.4824 7.05898 17.9074 7.005 16.2878L7 15.9878V10.6248C7.00001 10.2459 7.10763 9.87487 7.31033 9.55479C7.51304 9.23471 7.8025 8.97879 8.145 8.81682L8.298 8.75182L15.298 6.12682ZM16 7.99982L9 10.6248V15.9878C9.00003 17.2428 9.33745 18.4747 9.97696 19.5546C10.6165 20.6345 11.5345 21.5225 12.635 22.1258L12.87 22.2488L16 23.8138L19.13 22.2488C20.2527 21.6876 21.2039 20.8347 21.8839 19.7797C22.5638 18.7246 22.9476 17.5061 22.995 16.2518L23 15.9878V10.6248L16 7.99982ZM19.433 12.5608C19.613 12.3815 19.8544 12.2773 20.1084 12.2696C20.3623 12.2618 20.6097 12.351 20.8003 12.5191C20.9908 12.6871 21.1103 12.9214 21.1344 13.1743C21.1585 13.4272 21.0854 13.6798 20.93 13.8808L20.847 13.9748L15.613 19.2098C15.4223 19.4004 15.1683 19.5144 14.8992 19.5301C14.63 19.5458 14.3645 19.462 14.153 19.2948L14.057 19.2098L11.653 16.8058C11.4717 16.6263 11.366 16.3842 11.3573 16.1293C11.3487 15.8743 11.4378 15.6257 11.6065 15.4342C11.7751 15.2428 12.0106 15.1231 12.2646 15.0996C12.5187 15.0761 12.7721 15.1506 12.973 15.3078L13.067 15.3908L14.835 17.1588L19.433 12.5608Z" fill="#F8F8FF"/>
</svg>
