<svg width="26" height="20" viewBox="0 0 26 20" fill="none" xmlns="http://www.w3.org/2000/svg">
<path d="M19.25 13.75C18.375 13.75 17.6354 13.4479 17.0312 12.8438C16.4271 12.2396 16.125 11.5 16.125 10.625C16.125 9.75 16.4271 9.01042 17.0312 8.40625C17.6354 7.80208 18.375 7.5 19.25 7.5C20.125 7.5 20.8646 7.80208 21.4688 8.40625C22.0729 9.01042 22.375 9.75 22.375 10.625C22.375 11.5 22.0729 12.2396 21.4688 12.8438C20.8646 13.4479 20.125 13.75 19.25 13.75ZM13 18.75V18.25C13 17.75 13.1304 17.2867 13.3912 16.86C13.6521 16.4333 14.0217 16.1258 14.5 15.9375C15.25 15.625 16.0262 15.3908 16.8288 15.235C17.6313 15.0792 18.4383 15.0008 19.25 15C20.0625 15 20.87 15.0783 21.6725 15.235C22.475 15.3917 23.2508 15.6258 24 15.9375C24.4792 16.125 24.8492 16.4325 25.11 16.86C25.3708 17.2875 25.5008 17.7508 25.5 18.25V18.75C25.5 19.1042 25.38 19.4012 25.14 19.6412C24.9 19.8812 24.6033 20.0008 24.25 20H14.25C13.8958 20 13.5992 19.88 13.36 19.64C13.1208 19.4 13.0008 19.1033 13 18.75ZM10.5 10C9.125 10 7.94792 9.51042 6.96875 8.53125C5.98958 7.55208 5.5 6.375 5.5 5C5.5 3.625 5.98958 2.44792 6.96875 1.46875C7.94792 0.489584 9.125 0 10.5 0C11.875 0 13.0521 0.489584 14.0312 1.46875C15.0104 2.44792 15.5 3.625 15.5 5C15.5 6.375 15.0104 7.55208 14.0312 8.53125C13.0521 9.51042 11.875 10 10.5 10ZM0.5 16.5C0.5 15.7917 0.677083 15.1408 1.03125 14.5475C1.38542 13.9542 1.875 13.5008 2.5 13.1875C3.75 12.5625 5.04708 12.0833 6.39125 11.75C7.73542 11.4167 9.105 11.25 10.5 11.25C11.2292 11.25 11.9583 11.3125 12.6875 11.4375C13.4167 11.5625 14.1458 11.7083 14.875 11.875L13.8125 12.9375L12.75 14C12.375 13.8958 12 13.8283 11.625 13.7975C11.25 13.7667 10.875 13.7508 10.5 13.75C9.29167 13.75 8.10917 13.8958 6.9525 14.1875C5.79583 14.4792 4.68667 14.8958 3.625 15.4375C3.41667 15.5417 3.26042 15.6875 3.15625 15.875C3.05208 16.0625 3 16.2708 3 16.5V17.5H10.5V18.7188C10.5 18.9896 10.5521 19.2346 10.6562 19.4538C10.7604 19.6729 10.9062 19.855 11.0938 20H3C2.3125 20 1.72417 19.7554 1.235 19.2663C0.745833 18.7771 0.500833 18.1883 0.5 17.5V16.5ZM10.5 7.5C11.1875 7.5 11.7762 7.25542 12.2663 6.76625C12.7563 6.27708 13.0008 5.68833 13 5C13 4.3125 12.7554 3.72417 12.2663 3.235C11.7771 2.74583 11.1883 2.50083 10.5 2.5C9.8125 2.5 9.22417 2.745 8.735 3.235C8.24583 3.725 8.00083 4.31333 8 5C8 5.6875 8.245 6.27625 8.735 6.76625C9.225 7.25625 9.81333 7.50083 10.5 7.5Z" fill="#00AE8C"/>
</svg>
